<svg xmlns="http://www.w3.org/2000/svg" viewBox="0 60 500 300"><g id="freepik--background-complete--inject-341"><path d="M453.22,317.06A7.28,7.28,0,0,1,450.9,321c-.84.7-3.51,2.12-3.81.11a14.92,14.92,0,0,1,.74-3.69c.65-1.56,1.36-.54,2.42-.33S452.35,316.27,453.22,317.06Z" style="fill:#e0e0e0"></path><path d="M446,154.64c.38,1.34.63,2.66.93,3.91-1,1.53-3,1-4.56,1.78-.7.39-.9,1.8-1.58,2s-1-.57-1.48-.56c-1.34,0-2,2.69-3.63,2-.94.67,0,3.24-1.12,3.46-.82.15-1.27-1.12-1.76-1.9-.61-1-1.46-1.47-1.49-2.24s1.34-2.12,1.77-2.68,1.56-1.94,2.23-2.12c1.24-.33,2.49.14,3.44-.33s.86-2,1.3-2.35.8-.24,1.12-.45a4.48,4.48,0,0,0,1.3-4.46c-.31-1.25-2-2.62-.93-4.14a5.5,5.5,0,0,1,4.09,4.14c.1.77-.25,1.54-.19,2.34A11.3,11.3,0,0,0,446,154.64Z" style="fill:#e0e0e0"></path><path d="M446.34,142.46c-.21.57-.63.45-1,.78s-.83,1.34-1.3,1.45c-.75.17-1.59-.88-2.33-.67s-.36,1.06-.65,2a3,3,0,0,1-2-2.23c0-.64.67-1,.84-1.79.27-1.28-.44-1.92-.84-3.13,0-.18.09-.19.09-.33.91-.23,2.69,1.83,4.74,2.23C445.16,141,446.26,140.9,446.34,142.46Z" style="fill:#e0e0e0"></path><path d="M442.9,255.84c.1.93-1.25.83-1.39.22C441.54,255.35,442.74,255.12,442.9,255.84Z" style="fill:#e0e0e0"></path><path d="M436.39,133.08c.92.58,3.15,1.91,1.58,3.12A2.92,2.92,0,0,1,436.39,133.08Z" style="fill:#e0e0e0"></path><path d="M432.12,250.93c1.06-.7,2.22-2.23,4.09-1.45-.41,1.39-1.81,1.36-2.7,2s-1.65,1.77-2.79,1.9a.87.87,0,0,0-.37-.45C430.35,251.69,431.38,251.4,432.12,250.93Z" style="fill:#e0e0e0"></path><path d="M429.61,229.93c1.09,0,2.12-.41,2.88.11-.14,2.79-3.75.67-6.14,1.12-.51.09-.66.56-1.21.33a2.22,2.22,0,0,1,1.77-2C427.59,229.4,428.61,229.92,429.61,229.93Z" style="fill:#e0e0e0"></path><path d="M430.54,233.39c.1,1.54-1.66,1.71-2.14,2.91.77,1.41,1.07,3.4,2,4.68,0,.86.14,2-.28,2.35-1.87.43-2.88-3.61-3.63-5-1.43.32-.12,5.82-2,5.13-.94-.33,0-1.9-.19-3.12-.17-1.07-1-1.29-1.11-2.13-.06-.69.63-1.42.83-2.12.3-1,.11-3,1.12-3,.5,0,1.16,1.25,1.49,1.33C427.65,234.68,429,233,430.54,233.39Z" style="fill:#e0e0e0"></path><path d="M427.1,250c-.35.85-2.26.44-2.42-.33C425,248.82,426.94,249.08,427.1,250Z" style="fill:#e0e0e0"></path><path d="M425.33,252.71a2.34,2.34,0,0,1-.37.45c-.71-.27-1.46-.47-1.67-1.34C423.81,250.9,425.3,251.66,425.33,252.71Z" style="fill:#e0e0e0"></path><path d="M422.82,249.92c-.47.81-2.11-.06-2.7.78-1,0-1.94,0-2.14-1,.28-.82,1.16-.26,1.86-.34C421,249.24,422.52,248.29,422.82,249.92Z" style="fill:#e0e0e0"></path><path d="M409.71,292.71a28.49,28.49,0,0,0-.65-2.91c-.05-.37,0-.86,0-1.34a11.58,11.58,0,0,1-.28-1.68c.13-.73.85-.81,1-1.45.3-1-.35-1.21-.37-2.46,0-.88.56-1.31.93-2.45.18-.53.18-1.52.37-1.9s1.27-.88,1.68-1.11c1.42-.85,2.56-2.41,4-2.69.36-.07.85.06,1.11,0,.85-.18,1.9-1,3.07-1.34s2.13-.19,3-.78a8.88,8.88,0,0,0,2.61-3.35c.42-1.23.3-2.26,1.11-2.68.4-.21.8,0,1.21-.11a5.66,5.66,0,0,0,1.68-1c.64-.7.75-1.84,1.48-2.57a13.3,13.3,0,0,1,2.14-1.67,3.22,3.22,0,0,1,1.49-.45c1.31.13,1.92,2.33,3.34,1.9.51-.16,1-1.46,1.49-2.24.67-1.14,1.16-2.67,2.33-3,.94-.28,2,.43,2.51-.56.11-.71-.44-1.13,0-1.57,1.08.09,2.91,1.84,4.55,1.9.88,0,2.52-1.15,2.7.45.08.71-.66,1.28-.84,2-.12.52.19.79-.09,1.34-.76.36-1.56.55-1.58,1.56,0,1.28,1.5,1.88,2.41,2.58.63.47,1.16,1.2,1.49,1.45s.74.3.93.44c.61.47,1,1.54,1.86,1.57s1.89-1.42,2.42-2.8a27.24,27.24,0,0,0,.93-5.25c.09-.56.43-1.11.56-1.67.36-1.53.84-3.59,1.95-4.14,1.11,1.42,1.49,4.17,1.3,6.49.74.67,2,.45,2.23,2,.06.54-.22,1.23-.18,1.78.06.94.64,1.77.74,2.57.19,1.49-.2,2.72.37,3.8.73,1.37,2.15,1.32,3.07,2.8a6.19,6.19,0,0,0,.46,2c.09.34,0,.9.1,1.12.3.75,1.1.82,1.39,1.45.15.31.11.9.28,1.45a13.82,13.82,0,0,0,1.3,2.24,10.47,10.47,0,0,1,1.21,2.24c.19,1.11-.48,1.87-.65,2.79a27.47,27.47,0,0,1-.37,3.68c-.43,1.35-1.5,2.67-2.33,4.36a14.49,14.49,0,0,1-2.6,3.91c-.59.56-1.28.89-1.86,1.45a33,33,0,0,0-2.42,3c-.83,1.06-1.85,1.87-2.51,2.79-.95,1.33-1.43,3.47-3.06,3.69a7.89,7.89,0,0,0-2.7.45c-1.38.65-2.29,1.86-3,1.89s-1.39-1-2.05-1.11-1.33.67-2.42.67c-.44,0-.66-.32-1.3-.56-1.33-.51-2.79-.49-3-2.24-.11-.95.5-1.38.46-2.23s-.73-1.07-1-1.79a2.09,2.09,0,0,0-.47-2.23,2.61,2.61,0,0,1,.38-1.57,11.68,11.68,0,0,0-1.87.9c-.67.49-1.16,1.62-1.94,1.45s-.18-1.19-.28-1.9a10.51,10.51,0,0,0-1.59-3.24,11.74,11.74,0,0,0-3.16-1.45c-2.87-.54-4.7,1.3-7,1.57a17.41,17.41,0,0,0-1.77,0c-1.86.39-3.95,2.17-5.11,3.34-1.92.23-3.87-.47-5.86.23s-3.1,2.66-6.13,2.12c-.6-.62-1.67-.93-1.67-2,0-.85,1-1.4,1.39-2a8.81,8.81,0,0,0,1-3.13c0-.74-.42-1.63-.37-2.57C409.37,294.21,409.72,293.43,409.71,292.71Z" style="fill:#e0e0e0"></path><path d="M408.13,246.12c.51-.08.89-.53,1.4-.55,1.08,0,2.15,1,3.43.78.28.36.09.66.1,1.23,1.09.7,2.87.57,3.44,1.9-.82,1-2,.29-3.07.11s-1.95-.09-3-.23c-1.3-.18-2.47-1-3.71-1.22-.76-.12-1.53.13-2.24,0s-3.95-1.57-4-2.57,1.4-1.32,2.69-1.12C404.87,244.71,406,246.48,408.13,246.12Z" style="fill:#e0e0e0"></path><path d="M410.64,238.42c-.7-.24-1.36-.11-1.67-.34-.64-.47-.54-1.81-.75-2.57s-1-1.18-1.39-2.23c-.61-1.53-.87-4.94.74-5.25.65-.13,1.32.47,1.77.33.89-.26.74-1.66,1.49-2.23.41-.33,1.17-.19,1.76-.45a4.31,4.31,0,0,0,1.49-1.56c.39-.56.7-1.5,1.21-1.9s1.11-.47,1.58-.89c1.22-1.12,1.26-2.68,2.23-4,.83-1.14,2.13,1.1,2.23,2,.46.71,1.37.89,1.77,1.68-.55,2-2.09,2.14-1.77,4.91a9.4,9.4,0,0,0,.56,1.91c.27.65,1.05,1.35,1,1.78-.06.84-1.46.8-1.77,1.68s0,.86-.09,2.12c-.39.91-1.44,1.13-1.77,2.23-.39,1.33.06,3-.83,4-.62,0-1.29.64-2,.55s-1.6-1.43-2.89-1.45c-.49,0-1.07.38-1.58.34S411.22,238.61,410.64,238.42Z" style="fill:#e0e0e0"></path><path d="M404.62,235.93c2.37,0,2.37,4.41,0,4.41S402.26,235.93,404.62,235.93Z" style="fill:#e0e0e0"></path><path d="M401.16,235.4a4.83,4.83,0,0,1,1.3,2.24c0,.78-1,.74-1.3,1.78-.44,1.61.19,3.43-.56,4.25-.42.31-1.19.21-1.86.22a29.88,29.88,0,0,1-4.46-5,11.71,11.71,0,0,1-1.49-2c-.49-1.07-.66-2.24-1.21-3.24s-1.38-1.5-1.86-2.45c-.39-.79-.43-1.82-.83-2.57s-1-1-1.5-1.57c-.29-.37-.46-.94-.74-1.34-1.17-1.68-3.41-2.56-3.53-5,.48-.65,1,.25,1.86.45.58.13,1.26,0,1.67.11.85.34,1.43,1.93,2.33,2.8.5.48,1.16.82,1.67,1.33s1,1.36,1.39,1.68c.61.45,1.45.74,2.24,1.34,1.07.82,3,1.68,3.25,3.36.06.41-.16,1.12-.09,1.44.13.59.74.85,1.11,1.35s.55,1.55,1.21,1.67S400.45,235.29,401.16,235.4Z" style="fill:#e0e0e0"></path><path d="M357.27,211.94c.8.32,3.48,4.22,2.7,6.37a2,2,0,0,1-2.05,1.23c-1.84-.35-1.49-5.27-.93-7.26A.57.57,0,0,1,357.27,211.94Z" style="fill:#e0e0e0"></path><path d="M295.45,268.47a5.43,5.43,0,0,1,1.21-2.91c.85-.76,2-.69,2.88-1.23a7.67,7.67,0,0,0,2.23-2c.45-.7.47-1.49.84-2,.25-.36.81-.45,1.11-.89s.21-1.13.65-1.56c1.29-.67,1.66,2.17,1.86,4.13a15.29,15.29,0,0,1,.28,1.56c-.13.89-.95,1.07-1.21,1.68a20.69,20.69,0,0,1-1.58,6.59c-.62,1.74-1,3.64-1.49,5.14-.18.54-.57,1-.74,1.45-.67,1.9-.92,4.88-2.14,5.69a8.46,8.46,0,0,1-2.6.79,2.79,2.79,0,0,1-2.42-2.23,18.54,18.54,0,0,1-.09-2,11.28,11.28,0,0,1-.47-2.68c.21-2.27,2.05-3.38,2.14-5.25C296,271.3,295.32,269.9,295.45,268.47Z" style="fill:#e0e0e0"></path><path d="M250.64,109.5c.1,1.88-2.39,1.64-2.7,3.24-.14.73.29,1.7.19,2.35-.19,1.17-1.14.83-2.33,1.45-.61.32-1.2,1.48-1.86,1.56s-1-.42-1.39-.33c-.61.14-.41,1-1.31,1.23-.71.15-2-.77-2,.33-.06.71,1.12,1.1,1.86,1,.58-.07,1-.55,1.58-.56,1.1,0,1.82,1,2.51,1,1.59,0,3.16-1.77,4.84-1.57.75.09,1.2.74,1.76.67.9-.1,1.66-1.34,2.32-1.79-.28-1.88,0-4.36,1.49-4.46,1-.07,2.52,2.06,2.7,0a1.63,1.63,0,0,0-1.4-1.68c-.53,0-1.23,1.27-1.67.23,0-1,1-.76,1.49-1s.67-.71,1.11-.9c2.22-.93,5.28.92,6.14-1.34-2-2-5.3.74-7.53.56a3.09,3.09,0,0,1-2.51-2,14,14,0,0,1-.09-1.45c-.09-.71-.4-1.46-.38-1.9.1-2,4.28-2.4,4.28-4.91-.8-.92-3.14-.77-3.9.22-.28.35-.27,1.07-.65,1.79-.84,1.52-3.53,1.71-4.37,3.57a4.69,4.69,0,0,0-.38,2.24C248.62,108.1,250.57,108.39,250.64,109.5ZM228.51,218.76c-2.68-.48-5.42.82-7.26,1.78-1.05.56-2.13,1.4-3.06,1.45s-1.76-.56-2.6-.66a11.68,11.68,0,0,0-3.63.22c-1.07.23-2,1.14-3,1.22-1.8.17-3.51-2-4.65-3-.69-.65-1.39-1.18-2-1.79s-1.6-1.05-2.14-1.67c-.73-.85-.73-2.33-1.11-3.47-.46-1.33-1.84-2.31-2.89-3.57-.78-.95-2.59-2.36-2.79-3.57-.1-.62.22-1.34.19-2-.05-1-.66-1.53-.65-2.23,0-1,1-1.74,1.21-2.57.11-.42.06-1,.18-1.56.26-1.14.89-1.81.75-3.47a20,20,0,0,1-.56-2.12c0-.58.32-.91.28-1.45-.07-1-1.1-1.14-1.21-2.23s.9-2.07,1.49-3.36c.26-.57.41-1.45.65-1.89.52-1,1.37-1.41,1.77-2.35.29-.69.38-1.72.65-2.24s1-1,1.67-1.89c.53-.72.74-1.58,1.11-1.9a8,8,0,0,1,1.68-.78,8.05,8.05,0,0,0,3.81-4.14,5.41,5.41,0,0,1,.74-3.8,6.91,6.91,0,0,1,2-2.9c1.16-.79,2.25-.87,3.06-2.35a7.71,7.71,0,0,0,1-2.79A3.05,3.05,0,0,0,211.4,155c-.84-.16-2.13.77-2.6-.33-.15-.36,0-1.18,0-1.57-.11-.73-.63-1.25-.65-1.79-.05-1.05.86-2.14,1.11-3.35.35-1.64,0-2.9-.09-4.8,1.3-2.46,4.19-1.24,7.07-1,.43,0,.92-.12,1.39-.11,1.71.05,3.05.67,3.62-1.12a14,14,0,0,0,.28-3.79,8.67,8.67,0,0,0-1.95-3.13c-.92-.71-2.26-.4-2.79-1.68.43-2.2,2.49-.37,3.72-.89.63-.27.56-1.58,1.12-1.79.38-.14.86.46,1.39.45a8.89,8.89,0,0,0,2.51-1.34c.6-.49.78-1.49,1.3-1.9.36-.28.83-.25,1.21-.45a7.32,7.32,0,0,0,2.33-2c.76-1.1,1.11-2.48,2-2.68,1.25-.27,4.07.3,4.28-1.34s-1.14-2.79-.65-4.47c.39-1.33,1.38-1.09,2.79-1.9.68.58.48,2.23.55,3.24.87,0,2.63-.3,2.79-1.23.21-1.15-1.25-2.32-1.58-3s-.42-2.08-1.11-2.24c-1.42-.32-2.79,2.35-4.56,2.35a3.15,3.15,0,0,1-2.69-2.12,10.63,10.63,0,0,1-.1-1.79,9.5,9.5,0,0,1-.37-3.13c.71-1.46,2.35-1.7,3.53-2.46.45-.28.81-.89,1.31-1.11.83-.37,2.06,0,2.88-.56.52-.36.37-1,.74-1.68.24-.45.8-.71,1.12-1.23.22-.35.24-.9.46-1.23.81-1.2,2.28-1.65,2.88-2.9.27-.55-.45-.76-.27-1.56s1.46-.21,2.13-.34c.93-.17,1.78-1.52,2.79-1.79s2.19-.1,3.16-.55c.59-.28,1.13-.91,1.68-1,.19,0,.74.13,1,.11s.74-.28,1.21-.33a21.66,21.66,0,0,1,2.42.22c1.47,0,2.86-.53,4.09.11.64.34.56,1.21,1.39,1.56.42.18,1-.07,1.58,0,.91.11,1.86.86,3.07,1,.43,0,.87-.06,1.3,0a20.68,20.68,0,0,1,4.09,1.56c1.09.45,3.4,1,3.44,2.24.05,1.47-2,1.9-2.88,1.9-1.46,0-3.4-1-4.93-.45a4.12,4.12,0,0,0,4.37,4.13c.19-1.18-1.17-.52-1-1.67.93-.84,2,.56,3.35.33.51-.16.42-1,.55-1.67,1.11-.81,2.49-2,4.19-1.12a.86.86,0,0,1,.37-.44c.11-1.23-1.11-1.87-.46-3,.32-.8,2.05-.52,2.32.11s-.43.67-.37,1.34a1.47,1.47,0,0,0,1.49,1c.91-.06,1.09-1,1.95-1.57.35-.21.86-.23,1.3-.44s1-.76,1.39-.9.78,0,1.21-.11,1.13-.67,1.58-.67,1,.78,1.68.89c.38.07.83-.26,1.39-.33s.93.06,1.3,0c.89-.16,1.5-.72,2.23-.67.52,0,1.41.87,1.77.45.6-.72-.8-1.25-.37-1.91,1.43.13,2.94.09,4.37.34,2.13.36,4.13,1.63,6,1.68-.18-1.56-1.66-1.11-2.32-1.79a6.85,6.85,0,0,1-1-2.35,14,14,0,0,1,1.3-2.68c.82-.92,3.5-.92,4.27.34.53.85.35,2.15,1.12,2.12s1-2,1.76-2,1,1.24,1.58,1.23,1.31-1.74,2.33-1.79c.55,0,.73.34,1.58.45.58-.45-.19-1,.09-1.68,1-.91,3.42-.22,4.74-.78.37-.53-.47-.91-.09-1.45,1.15-1,3.07-1,5-1.45,1.2-.25,2.32-1.24,3.26-1.35s1.9.69,2.79.67a4.46,4.46,0,0,0,1.67-.44c.52-.25.88-.86,1.4-1,.81-.24,1.84.12,2.78,0a11,11,0,0,1,2.61-.44c.67.13,1.21,1,1.86,1.11,1.95.37,4-.35,5.76.23.32.1.64.5,1,.67,1.2.52,2,.36,2.24,2.12.94.4,1.49,1.44,2.6,1.79.74.23,1.49-.12,2.32-.12a21.9,21.9,0,0,1,3.44.23c.53.1,1,.57,1.49.67s.87,0,1.3,0a15.52,15.52,0,0,0,1.58.33c1,0,1.71-1.08,2.51-1.23a5.77,5.77,0,0,1,1.39.23c1.57.16,3.38-.25,4.65.11a9,9,0,0,1,2.61,1.79c.54.5.88,1.3,1.39,1.67a4.65,4.65,0,0,0,2.23.9c.6-.12.62-.91,1.21-1.23,1.85-.49,5.12.7,6.6-.11.58-.32.47-1,.93-1.46,2.79-.16,5.57.14,8.18.23a16.66,16.66,0,0,1,2.7-.11c.92.19,1.59,1.3,2.51,1.67.61.25,1.69.12,2.6.34.62.14,1.13.59,1.58.67a11.08,11.08,0,0,0,2.89-.23c2.13-.2,4.87-.34,7,.67,1.12.54,1.59,1.63,2.79,1.79,1.72.23,4.38-.17,6.14,0a9.35,9.35,0,0,0,1.11.22c.59,0,.95-.65,1.67-.67.92,0,2.39,1.73,3.73,1.46.57-.47-.47-1.12.08-1.57s1.24,0,2.05,0c.44,0,1-.27,1.4-.22,1,.11,2,1.21,3.25,1.56a9.76,9.76,0,0,0,3.63.23,8.52,8.52,0,0,1,2.51-.34c.41.07.78.43,1.21.56s.78,0,1.11.11.62.45.93.56c1.73.59,4,.89,5.86,1.56,1.08.4,2.17,1.2,3.07,1.23.44,0,.83-.23,1.39-.22,2.81,0,6.11,1.43,5.86,4.58-3.29.87-6-2.72-9.49-1.68a1.73,1.73,0,0,0-1.11,1.57c.13,1.94,4.21,1.78,4.55,3.68-.67.61-1.4,0-1.95.12a6.56,6.56,0,0,0-2.79,1.78c-.63.71-1.18,2.52-1.86,2.68-.83.2-2.1-1-3.34-.67-.46.12-.9.8-1.3.9-1,.23-2.34-.67-3,.78.34,1,.13,2.44.84,3,.45.37,1,.08,1.58.33s1,1.25,1.58,1.79.95.45,1.21,1c.06.83-.28.92-.19,1.46.15.93,1.36,1.14,1.39,1.78.05.81-.76.64-.92,1.45-.06.52.5.66.55,1.34,0,.46-.3.94-.27,1.46,0,.74.52,1.24.46,1.9a1.72,1.72,0,0,1-.84,1.23c-1.78-1.38-3.38-3.27-5.3-5s-5.07-4-5.39-7.82c0-.58,1-1,1.21-1.9.07-.35-.12-.85-.09-1.34.06-1.31,1-2.57.93-3.35a4.49,4.49,0,0,0-2.05-2.68c-.54.34,0,1-.09,1.56a2,2,0,0,1-1.4,1.57c-1.76.18-1.95-2.73-4.74-1.9a2.92,2.92,0,0,0-1.49,3.12c.08.49,1.2,1,1.12,1.68s-2.53.83-3.07.78c-1.5-.14-2.27-1.49-3.62-1.45-.67,0-1.25.67-1.77.78-2.93.64-7.28-1.73-8.27,1.34-.15.43-.07,1-.19,1.45A14.84,14.84,0,0,1,418,115c-.11.34-.09,1-.27,1.56s-1.93,2.4-.38,2.91c.38.12.55-.19,1-.12.8.13,2.12,1.67,3.06,1.68.56,0,1.34-.76,1.77-.78.86,0,1.48.62,2.14,1s1.58,1.15,2.05,1.12c.87,0,.45-.78,1.3-1.12,1.6.58,2.36,2.62,3.9,4.25.56.58,1.39,1.09,2.14,1.9.42.45,1.71,1.66,1.77,2.23s-.36.76-.47,1.23c-.15.68.2,1.18-.19,1.68-1.48-.66-1.81-2.42-2.88-3.91-.39-.56-.79-1.22-1.39-2-.27-.36-1.26-1.62-1.86-1.34-1.17.53.64,2.66.93,3.12a8.49,8.49,0,0,1,1.49,3.36c0,.66-.36,1.87-.38,3,0,.77.17,1.47.1,2.12a17.52,17.52,0,0,1-.65,2.13c-.22.81-.27,1.79-.47,2.34a3.63,3.63,0,0,1-2.42,2.23c-.77,0-1.1-.71-1.86-.66-1.14.06-1.35,1.33-2,2.34.06,1.1.35,1.48.19,2.24-.25,1.18-1.63,1.38-1.58,2.56s1.25,1.31,1.85,1.79a17.15,17.15,0,0,1,3.07,3.35,6.85,6.85,0,0,1,1.21,3.13c-.07,1.11-2.72,2.64-3.81,2.23s-.68-1.58-.93-2.68c-.19-.84-.74-1.21-1-1.89-.15-.37-.08-.94-.28-1.34-.56-1.14-1.54-.52-2.7-1.23-.76-.47-.54-1.46-.84-2.35-.39-1.2-2.08-1.77-3.43-1.45-1,.23-1.31,1.23-2.24,1.45-1.36-1,.28-3.37-1.39-3.57-1.28-.17-2.13,2.21-2.88,2.9-.51.47-1.43.56-1.49,1.23-.11,1.23,1.08,1,2,1.45s1,1.61,1.77,1.68,1.11-.83,1.77-.9a4.12,4.12,0,0,1,2.79,1c-.47,1.35-3,2.34-3,4.13,0,1,1,1.21,1.77,1.9s1.5,2.21,2.42,3.35c.39.49,1,.82,1.21,1.12.43.74.36,1.64.83,2.12.08.61-.23.76-.19,1.34.23.81,1.26.65,1.49,1.45-.19,1.93.48,3.75-.83,4.47-.61,3.46-1.29,6.16-3.26,8-1.76,1.69-4.1,2.18-6.23,3-.55.22-1,.91-1.48,1.12-1.24.5-3.44.2-3.53,2-.06.89.94,1.43,1,2.34.11,1.4-.93,2.81-1.68,2.91a1.7,1.7,0,0,1-1.77-1.57c-.07-1.33,1.38-1.87,1.49-2.68a2.37,2.37,0,0,0-2.41-2.68c-1.23.11-4,3.08-4.09,4.7-.06,1.21,2,3.72,2.69,4.46,2.61,2.77,5.39,4.43,4.93,11.17-.65,1.71-2.32,2.08-3.63,3-1,.72-1.49,2.94-3.16,3.13-.67-.28-.28-1.54-.46-2.12-.26-.8-1.59-1.2-2.42-2a25,25,0,0,1-1.49-2.35c-.65-.77-1.62-.93-2.42-1.45-.5-.33-.89-1.48-1.39-1.45-.82,0-.54,1-.74,2.56s-1.15,2.75-.84,4.58c.13.75.91,1.36,1.3,2.13.64,1.26.73,2.74,1.39,3.46.44.48,1.18.58,1.68,1a13.18,13.18,0,0,1,3.07,3.69c.4,1.18,0,2.56.28,3.8.31,1.43,1.86,2.45.93,3.91a7.2,7.2,0,0,1-2.42-1.45,8.4,8.4,0,0,1-2.7-3.35,12.31,12.31,0,0,1-.74-1.34c-.33-1-.26-2.14-.56-3.35a10.69,10.69,0,0,0-2.05-3.58c-.65-.74-1.81-1.17-1.86-2.24-.06-1.49.43-3.26.38-5,0-.38-.23-.77-.28-1.23-.1-.86.07-1.91-.1-2.68a13.25,13.25,0,0,0-.83-2,22.5,22.5,0,0,1-.74-2.13c-.38-1.29-.8-3.78-1.68-3.91s-1.85,2.1-3.07,2.13a1.76,1.76,0,0,1-1.58-1.34c-.11-.69.3-1.38.28-2.12,0-1.5-.92-2.08-1.58-3.13-.27-.43-.34-1-.56-1.34-.42-.61-1.23-.95-1.76-1.57a8.93,8.93,0,0,1-1.31-2c-.36-.87-.47-2-1-2.12s-1.13.79-1.67,1a12.86,12.86,0,0,1-2.51.55c-1.87.16-3.38-.44-3.16,2.24-.29,1.2-1.35,1.21-2.05,1.78-.89.73-1.54,2.19-2.51,3.35-.47.57-1.15.93-1.58,1.46s-.46,1.14-.84,1.56c-1,1.13-2.48,1.22-3.15,2.8,0,1.85.73,3.26.55,5-.08.8-.58,1.52-.65,2.35a20.23,20.23,0,0,1,.1,2.23c-.09.41-.46.62-.75,1.12s-.36,1-.55,1.34c-.32.48-.83.82-1.12,1.23-.48.67-.58,1.15-1,1.23-2,.35-2.54-4.31-3.44-6.26-.41-.9-1.26-1.71-1.67-2.79-.48-1.25-.62-2.82-1.3-4.25a29.51,29.51,0,0,1-1.77-3.68c-.33-1.07-.62-2.4-.93-3.58a22.06,22.06,0,0,1-.74-3.79c-.08-1.46.23-2.35-.75-2.91C341.41,188,341,189,340,189s-3.66-2.07-2.88-3.91c-.65-1.11-2.29-1.71-3.53-3-.72-.74-1.36-2.52-2.61-2.68a5.21,5.21,0,0,0-1.11.23c-.79.08-2.19-.09-3.07,0a16.73,16.73,0,0,1-3.91.22c-.91-.12-2-.33-3-.45-1.19-.14-2.77-.48-3.44-1.23-.41-.45-.58-1.92-1.3-2.12-.87-.24-1.34.56-2.14.78-1.7.47-3.13-.42-4.28-1.34-.81-.65-1.56-1-2.14-1.45-1.41-1.14-1.66-4.55-3.81-4.58a2.06,2.06,0,0,0-2,1.57,6,6,0,0,0,1,2.57c1,1.76,3,2.43,3.53,4.8.39.18,1.17-.41,1.58.11.36,1,0,2.91.84,3.35,3.86.77,5-1.78,6.69-3.57,1,.78.68,1.47,1,2.34a3.4,3.4,0,0,0,1.58,1.9c.46.22,1.06,0,1.76.34.44.2,2.28,2.28,2.33,3s-1.2,2.9-1.58,3.47-.94.84-1.12,1.34-.09,1.2-.19,1.45c-.17.44-1,1-1.48,1.56a20.29,20.29,0,0,1-1.58,1.45c-.59.55-1,1.29-1.58,1.57-1.24.55-2.42.31-3.44,1.12-.67.52-.68,1.71-1.49,2.34s-2.3.67-3.53,1.34c-.8.43-1.27,1.27-1.95,1.57-.28.11-.63,0-.94.11-.61.19-1.18.72-1.76.89s-1,.07-1.4.23c-1.43.49-2.74,2.24-4.18,1.22-.68-1.88-.79-4.25-1.58-5.92-.41-.85-1.2-1.11-1.49-2,0-.72.68-.52.74-1.11-.23-1.21-1.18-1.78-1.76-2.8-.29-.5-.42-1.21-.75-1.78-1.1-1.94-3.29-2.95-3.72-5.37-.11-.65,0-1.17-.09-1.67a6.7,6.7,0,0,0-1.11-2.35c-.36-.49-1.08-.83-1.49-1.56-.27-.49-.33-1.16-.56-1.68a18.07,18.07,0,0,0-3.72-5.36c-.76.13-1.57.19-1.95.78a19,19,0,0,0,1.58,3.91,23.84,23.84,0,0,1,1.77,3.58c.14.46.12,1.07.28,1.56.58,1.77,2.42,2.32,2.79,4.36.24,1.37-.06,2.31.27,3.68s1.94,2.09,2.61,3.35c.54,1,.55,2.49.93,3.47.55,1.43,2.11,2,3.25,3a29.94,29.94,0,0,1,2.6,3.13c.5.54,1.18.64,1.31,1.23.15.76-.27,1-.38,1.67.72.9,1.41,2.55,2.61,2.69.49.05,1.11-.54,1.86-.67.37-.07.8.07,1.11,0,.5-.11.93-.64,1.49-.79.95-.24,2.05-.14,3.25-.33s1.92-1.33,2.79-1c1,1.27.27,2.7,0,3.91-.09.43-.09.88-.18,1.23-.5,2-1.82,3.47-2.42,5.25-.19.55-.15,1.22-.37,1.79a22.49,22.49,0,0,1-3.26,5,20,20,0,0,1-1.86,2.23c-.66.66-1.48,1-2.23,1.68a22.54,22.54,0,0,0-4.09,4.91c-.4.67-.6,1.45-1,2-.61.82-1.54,1.22-2.05,2a24.41,24.41,0,0,0-1.11,2.9c-.51,1.28-1.58,2.14-1.4,3.91.07.67.58,1.1.75,1.79a8.81,8.81,0,0,1-.1,3.46c.53,1.53.91,3.23,1.86,4.24.12,2.26-.15,4.46,0,6.37.1,1.22.5,2.12.1,3.24a10,10,0,0,1-2.51,3.35c-.88.68-2.22.86-3.16,1.68-.66.57-1.2,1.57-1.86,2.24-1.1,1.09-2.6,2.12-2.7,3.23a9.08,9.08,0,0,0,.56,2.24,11.6,11.6,0,0,1,.09,5.8c-.67,1.94-4.08,1.54-4.46,3.58-.12.62.23,1.11.18,1.79a16.47,16.47,0,0,1-.93,3.23c-.41.93-1.34,1.34-1.95,2.13-.76,1-1.14,2.42-2,3.46a29.93,29.93,0,0,1-4,4.13,10.51,10.51,0,0,1-5.39,2.35c-1.13.1-2.34-.32-3.53-.11-.44.07-.91.56-1.49.67-.34.06-.68-.07-1,0-.59.12-1.13.68-1.68.67-1.2,0-2.75-1.74-2.78-3.46,0-.66.47-1.29.46-1.9s-.74-1.61-1.3-2.91-.76-2.66-1.3-3.68-1.34-1.61-1.77-2.46c-.86-1.72-.92-3.75-1.21-5.81-.09-.67-.47-1.4-.56-2.24a28.75,28.75,0,0,0-.09-3,14.79,14.79,0,0,0-1.12-2.12c-.65-1.45-1.11-3.34-1.67-4.47s-1.58-2.16-1.67-3.35a19.27,19.27,0,0,1,.18-3.13c.1-.78.59-1.4.75-2.23.1-.55,0-1.18.09-1.79.47-2.56,2.82-3.49,2.51-6.59-.13-1.32-.91-2-1-3.47-.06-.7.29-1.31.28-2a11.86,11.86,0,0,0-1-3.24c-.94-2.46-1.52-4.71-2.88-6.59-.74-1-1.71-1.74-2.32-2.68a7.79,7.79,0,0,1-1.12-2.79c0-.64.41-1,.56-1.68.19-.82.21-2.38.46-3.68a11.07,11.07,0,0,0,.56-3,4.47,4.47,0,0,0-2.23-3c-1.3-.39-2.63.49-4.27.33C230.44,221.93,230.55,219.11,228.51,218.76Zm51.41,40c.43-.82,1-3.13,0-3.69h-.18C279.32,256,278.88,258.23,279.92,258.75Zm-1.3-23.35c.31-.77,1.05-1.59.93-2.57-.27-2.15-3.62-1.09-4,.45-.25,1,.15,1.85-.19,2.9.37.83,1.29,1,2.42.89C278.41,236.74,278.33,236.11,278.62,235.4ZM273,246.91c.37-.82-.59-1.36-.75-2.24s.21-2.24-.56-2.79h-.27C270.69,243.71,271.65,246.73,273,246.91ZM336.35,136c-.35-.85-1.35.25-.92,1C336.06,137,336.28,136.6,336.35,136Zm-21.66,4.58c1.51-.35,0-3.25-1.11-2.91C312.1,138.1,313.67,140.8,314.69,140.56ZM307.81,155c.47-3.88-2-4.17-2.51-6.93.22,0,.11-.32.28-.33.61-.35,1.54.56,1.86-.34a1.91,1.91,0,0,0-2.79-1.67c-.4-.33-.46-1.09-.56-1.79-1-.75-3.66-2.4-3.62-3.91,0-1.24,1.36-1.94,2.88-1.9.64-.58.23-2.38-.37-2.79-2.41-.63-3.69-.21-5.21,1.12-.73.63-1.54,1.07-1.95,1.45a3.07,3.07,0,0,0-.84,1.78c.06.7.88,1.1,1.21,2,.17.47.13,1.06.28,1.45.41,1.08,1.45,1.77,2.23,2.68.56.64,2.11,2,2.14,2.79s-.48.78-.65,1.45a10.17,10.17,0,0,0-.28,2.8c.21,1.22,1.26,1.27,2.23,1.79s1.89,1.42,2.88,1.45A3.54,3.54,0,0,0,307.81,155Zm-21.85-8c2.52-.55,1.37-3.11.1-4-1-.7-2.13-1.3-3.26-2.13-.65-.48-3.14-1.38-3.16-2.34s1.85-1.4,1.12-3.24c-1.28-.38-4.3.21-4.09,1.9.12,1,1.08.43,1.3,1.45-.91.39-2,1.41-3,1.23-1.14-.22-1.43-1.9-2-2.91-.89,0-1.47-1-2.51-.89s-1.68,2.05-2.23,3c-.3.5-.77.77-.93,1.22-.1.28,0,.72-.1,1.12-.31,1.24-1.21,1.7-1.11,2.79s1,1.41,1,2.24-1.21.41-1.11,1.45c1.66,1.65,1.75-.78,2.6-1.12.68-.27,2,.23,2.88,0,.7-.18,1.25-1,2-1.34a5.11,5.11,0,0,1,1.77-.45c3-.14,4.87,2.17,7.44,2.24A17.08,17.08,0,0,0,286,146.93ZM280,160.11c.05-1.2-.38-2.1-.46-3.8-1.72-1.24-3,1.16-4.74.89-1.07-.16-1.84-1.66-3-1.45-.62.12-.93,1.09-1.58,1.23-1.33.29-1.93-1.28-3.35-.67-2-1.82-2.88-4.79-3.34-8.15-1.09-1.71-2.74-.32-3.54.78-.48,0-1.09-.33-1.2.33-.37,2.07,2.43,2.29,2.41,3.69,0,.91-1.09.83-1.58,1.45s-.17,1.25-.83,1.68c-1.84.26-2.44-.94-2.42-2.91-.79-1.44-1.79-2.49-2.51-3.68a4.85,4.85,0,0,1-.74-1.79c-.07-.52.2-1.19.09-1.79-.2-1.06-1.86-1.87-2.88-2.46a15.68,15.68,0,0,1-3.26-2c-.55-.56-.81-1.53-1.3-1.89s-.93-.25-1.3-.56-.43-1.15-1.12-1.35c-.35-.15-.89.42-1.11.79-.46,2.44,1.19,2.6,1.95,3.68.52.74.78,1.86,1.3,2.35s1.33.43,2,.78c.49.25.82,1,1.3,1.34.89.65,2.31.76,2.42,2-.56.45-1.81-.66-2.24.45-.1.73.48,1.1.47,1.79,0,1.1-1,2.3-2,2.12-.1-.66.48-1.19.46-1.9,0-1.42-2.42-3.59-3.62-4.24-.57-.31-1.26-.33-1.77-.68a14.15,14.15,0,0,1-3.07-3c-.66-1.06-1.23-3-2.69-2.91-.6.05-1.09.71-1.59,1a14,14,0,0,0-1.39.89c-.54.43-1,.87-1.49.9-1.17.06-2.16-1-3.16-.79-.34.09-.62.46-1,.9,0,.65.16,1.07.09,1.78-.3.63-1.2.59-1.86,1a13.92,13.92,0,0,0-2.6,2.79,3.79,3.79,0,0,0-1,1.57c-.05.37.26,1.07.18,1.56a5.07,5.07,0,0,1-1.49,2.12c-.32.28-.76.31-1.11.56-.73.52-1.06,1.2-1.67,1.34-1.63.37-4.58-.39-4.56,1.68,0,1.38,1.57,1.39,2.51,1.34,1.32-.06,2.43.33,3.16.11.5-.15,1-.83,1.58-1.12.33-.18.68-.18.93-.33.56-.34.87-.88,1.3-1.12a10,10,0,0,1,3.35-.89c1.25-.09,2.56.15,4.18,0,.58-.06,1.15-.5,1.77-.56,1-.1,2.34.48,3.16.45.57,0,1.2-.69,1.86-.67a1.88,1.88,0,0,1,1.67,1.23c.08.32-.15.84-.09,1.34.11.81.69,1.14.65,1.67-.05.7-1.5,1.63-1.3,2.46.13.53,1.17,1.08,1.67,1.45a5.61,5.61,0,0,0,2,1c.52.07,1-.18,1.49-.11a6.45,6.45,0,0,1,2.6,1.11c.87.74.75,1.93,1.77,2.35.43.18,1.21.08,1.76.22,1.36.35,2.36,1.7,3.35,1.56,1.56-.21.85-2,1-3.23.4-2.86,5-2.73,5.95-.79.68.22,1.28,0,2.05.34.44.17.78.76,1.21.89a9.73,9.73,0,0,0,1.21,0c1.78.24,3.39,1.84,4.92,1.56,1-.17,1.68-1.26,2.61-1.34,1.77-.13,2.91,1.6,4.83.79,1.41-.6,1.1-2.36,1.58-4.14C279.33,161.89,280,161,280,160.11ZM380.24,122a4.54,4.54,0,0,0-.93-3.79c-1.08.22-.3,1.56-.37,2.34-.11,1.11-1.09,1.88-1,3-.35.5-1,.7-1,1.56.59.49.85-.38,1.3-.89C378.9,123.45,380,123,380.24,122ZM355.88,83.25a3.25,3.25,0,0,0-2.05.9c-.35.22-1.06.34-.83,1C353.89,85,355.67,84.54,355.88,83.25ZM316.65,97c2.18.61,3.21-2.35,1.76-4-.34-.39-1.48-.54-2-1.45-.57-1.09-.49-2.55-1.86-2.23,0,.13,0,.31-.09.33-.13,2.44,2.83,3.06,2.78,5C317.27,95.68,316.37,95.79,316.65,97Z" style="fill:#e0e0e0"></path><path d="M286.06,92.75c-.27-1.21,1.63-1,1.3.11A.88.88,0,0,1,286.06,92.75Z" style="fill:#e0e0e0"></path><path d="M274.62,159.55c0-.92,1.8-1.26,2.14-.45C276.64,160,275,160.62,274.62,159.55Z" style="fill:#e0e0e0"></path><path d="M242.73,153.52c1-.94,3.13-.31,4.47-.34-.26.86-.29,2-.84,2.46C244.83,155.31,243.41,154.86,242.73,153.52Z" style="fill:#e0e0e0"></path><path d="M236,147.6c1.27-1.61,2.61-.76,2.13,2.34-.3.93-1.63,2.16-2.23.79A14,14,0,0,0,236,147.6Z" style="fill:#e0e0e0"></path><path d="M237.8,144a1.58,1.58,0,0,1-.65,1.68C235.93,145.44,236.86,142.8,237.8,144Z" style="fill:#e0e0e0"></path><path d="M219.77,121.35a2,2,0,0,0-.84-1.79c-.3-.21-.77-.11-1.11-.34-.91-.6-1.24-1.84-1.77-2.12.07-1.22-.28-2.11,0-2.91a6,6,0,0,1,2-2.12c.81-.34,1.66,0,2.13-.78a.57.57,0,0,1,.47.11c0,.71-.5.82-.56,1.46.11,1,1.6.38,1.77,1.33-.15,1-.93,1.25-.93,2s1.12,1.92,1.67,2.79c.41.64,1.12,1.12,1.49,1.79s.39,1.26.65,1.56c.49.56,1.59.65,1.67,1.45.11,1.07-1.1,1.49-.93,2.68-1.27,1.21-3.4.58-5.48.9-1,.14-2,1.27-3,.33-.23-.75.83-.85.93-1.56-.07-.66-.77-.57-.93-1.12.27-.87,1.11-1,1-2.34C218.61,122,219.61,122.26,219.77,121.35Z" style="fill:#e0e0e0"></path><path d="M212.8,118.66c1.24-.91,3.41-.21,3.53.9.09.84-.66,1-.93,1.9s0,1.87-.28,2.46-1.06.48-1.58.66c-1.17.42-3.43,2.08-4.37.23.13-1,.93-1.19,1.21-2,0-.65-.56-1-.47-1.68.12-.84.64-.55,1.4-.89C211.85,120,212.09,119.18,212.8,118.66Z" style="fill:#e0e0e0"></path><path d="M149.3,94.42c.19,1-2.45,2.29-2.7,1C146.4,94.4,148.62,93.12,149.3,94.42Z" style="fill:#e0e0e0"></path><path d="M146.23,346.21h-1.4A1.88,1.88,0,0,1,146.23,346.21Z" style="fill:#e0e0e0"></path><path d="M142,86.49a.4.4,0,0,1,.56,0c-.09.27-.16.55-.56.45Z" style="fill:#e0e0e0"></path><path d="M133.77,104.25c0,.62-1.85,1.64-2.05.45a.94.94,0,0,1,.38-.89C132.59,103.44,133.75,103.65,133.77,104.25Z" style="fill:#e0e0e0"></path><path d="M95.09,208c0,.17-.14.28-.18.45C93.92,208.44,94.81,206.92,95.09,208Z" style="fill:#e0e0e0"></path><path d="M57.34,130c.66-.46,1.28.68.84,1.23C57.46,131.34,57.28,130.36,57.34,130Z" style="fill:#e0e0e0"></path><path d="M158.68,134.08c-.43-.13-1-.1-1.58-.22s-1-.27-1.48-.34c-1.15-.16-2.39.24-3.07-.56a35.11,35.11,0,0,1,4-5c.42-.46,1.33-.77,1.11-1.68-.79-.84-1.76,0-2.51.56a7.91,7.91,0,0,1-2.6,1.45c-1.54.27-3.58-.54-4.83.45-.18.84,1.43.51,1.2,1.79a1.6,1.6,0,0,1-1.67-.34c-.43-.47-.18-1.17-.46-1.45-.48-.48-2.27-.61-3.07-.45a2.33,2.33,0,0,0-2,1.9c1.18.66,3.11-.68,3.54,1-.65,1.39-2.16,2.15-2,4a2.41,2.41,0,0,0,1.31,1.79c.51.1.8-.51,1.3-.45s.4.78,1,.67c.9-.46,1.39-2,2.42-1.9,1.23,1.79-1.11,2.67-2.42,3.24-1.49.65-3.42,1-4.56,1.56-.59.3-2.84,2.91-3.16.89-.22-1.45,1.12-1,1.4-2.23-1.44-.34-2.78.75-4.09,1.34-1.87.85-5,1.39-5.49,3.91-.09.51.19,1.45-.09,1.79s-1.56.32-2.14.56c-.9.37-1.68,1.16-2.23,1.34s-1,.1-1.3.22c-.74.35-1,1.55-1.86,2.35-.35.32-1.12.56-1.4.89-.48.58-.54,2-1.39,2.24-.54.05-1-.49-1.49-.12-.06,1.43.42,3.37-.09,4.81a25.59,25.59,0,0,1-3.72,2.79c-.78.53-1.48.66-2.42,1.23-.66.4-1.27,1.35-2,1.9-1.78,1.25-3.92,2.74-3.91,5.92,0,.69.3,1.43.37,2.23,0,.48,0,.94,0,1.46.11,1.16.82,2.65,0,3.46-1.25-.62-2.84-.83-3.71-1.9-.24-1.1.48-2,.37-3-.09-.8-1-2.24-1.58-2.34s-1.09.61-1.68.55-1.34-1.21-2.23-1.34c-1.31-.18-2.27.36-3.72.12-1.4.9-1.81,2.5-3.53,2.34-.6-.05-1.16-.61-1.86-.78a10,10,0,0,0-2.69-.45c-1.59.13-2.74,1.5-4.09,2.35s-2.9,1.68-3.26,3.24c-.19.84,0,2-.28,2.79a13.18,13.18,0,0,1-.74,1.45,13.23,13.23,0,0,0-1.12,8.61,22.51,22.51,0,0,0,1.58,3.79,4.88,4.88,0,0,0,2.7,1.57,10.89,10.89,0,0,0,2.14-.56,18,18,0,0,0,2.41-.45c2-.77,1.62-4,3.63-5.14a8.3,8.3,0,0,1,3.44-.67,2.82,2.82,0,0,1,.65,2.13,15.19,15.19,0,0,1-.74,1.89c-.21.72-.26,1.55-.47,2.13-.27.75-.89,1.3-1.11,2-.15.46-.07,1-.19,1.45-.21.74-1,1.25-.65,2,2,.95,4.4-.27,6.14.11A3.11,3.11,0,0,1,99,201.55c0,1-.66,1.68-.75,2.8-.11,1.39-.6,3.11-.65,4.24-.08,1.85,2.27,5,3.91,5s2.8-2.12,4.92-1c.71.37,1.46,1.74,2.24,1.68s1.61-1.41,2-2.35c.53-1.14.56-2.1,1.49-2.68s1.79-.32,3.07-.89a7.87,7.87,0,0,0,1.58-1.12c.45-.37.92-1.35,1.49-.67.74.89-.91,1.39-.28,2.34,1.28.83,2-1.52,2.88-1.56a6.21,6.21,0,0,1,1.86,1.12c.72.57,1,1.37,1.76,1.56.51.12,1.33-.23,2-.11,1,.16,1.51,1.14,2.23,1.12.88,0,1.3-1.18,2-1.34,1.64-.37,2.25.22,3,1.45.81.17.84-1.13,1.58-.67-.4,1,.14,1.42.47,2.23.21.53.17.9.37,1.12.44.51,1.3.51,1.95,1a12.8,12.8,0,0,1,1.86,2.57c.81,1.11,2.17,2.26,3.25,2.34s1.86-.35,2.7-.22c1.92.28,3.12,1.44,4.46,2.68a4.83,4.83,0,0,1,1.68,2c.17.58.08,1.36.28,2,.41,1.39,2.09,2.06,1.48,4.47.28.7.91,1,1.58,1.45s1,1.23,1.58,1.34c.38.07.79-.14,1.12-.11a7.78,7.78,0,0,1,2.7,1,10,10,0,0,1,1.67.68c.47.38.53,1.67,1.12,2,.38.23,1.22-.08,1.86,0,1,.15,2.35.88,3.25.9.55,0,1-.27,1.49-.22,2.27.21,3.56,3.48,5.76,4.46.68.31,1.76.1,2.23.34.83.43,1.52,3.46,1.58,4.8.19,4.06-2.4,5.36-3.9,8.05-.31.56-.49,1.45-.93,2.23-.89,1.58-1.89,1.91-1.77,4.8,0,.8.37,1.58.37,2.46a18.62,18.62,0,0,1-.28,3.47c-.15.74-.66,1.34-.74,2s.17,1.2.09,1.79a11.38,11.38,0,0,1-1,2.45c-.86,1.91-1,4.15-2.79,4.91-1,.46-2.41.2-3.53.67-.45.2-1,.7-1.58,1-1.62.9-3.93,2.13-4.37,4.13-.4,1.79.55,3.21.28,5.25a17.29,17.29,0,0,1-1.12,1.9c-.4.64-.6,1.38-1,2-.56.85-1.43,1.22-1.77,2.35-.11.39,0,.84-.18,1.45-.06.23-.4.58-.56,1s-.14.9-.28,1.23c-.42,1-1.69,3.37-2.6,3.68-1.93.65-4-1-5.3-.67.19,1.12.87,1,1.3,1.79a12.83,12.83,0,0,0,.74,1.56c.42.58.79.8.84,1.45a4.27,4.27,0,0,1-1.39,3.25,7.71,7.71,0,0,1-2.7.89c-.69.14-2.46.14-2.79.67-.48.78.25,2.69-.09,3.46-.7,1.64-2.57,0-3.54.45a2.34,2.34,0,0,0,.75,2.12c.58.41,1.47-.12,1.86.67-.19,1.11-1.19,1.26-1.4,2.35,0,1.07.3,1.34.19,2-.24,1.43-2.1,1.37-2.05,2.9.08,2.29,3.66,1.35,3.72,3.58,0,1.35-1,1.36-1.39,2.68-.2.7.11.87,0,1.45-.16.79-.93,1-.93,1.9,0,1.07,1.3,2.24,1.95,3.13a11.79,11.79,0,0,0,2.32,2.68c1.31.87,3.25.67,3.82,2.23-.18.94-.94,1.19-1.68,1.45h-.18a1.88,1.88,0,0,0-1.4,0h-1.3c-1.24-.69-2.75-1.13-4.28-1.78-.55-.24-1.16-.8-1.76-1.12s-1-.34-1.3-.56c-.81-.5-1.71-2.14-2.51-2.79-.49-.4-1.26-.6-1.58-1a15.23,15.23,0,0,1-.75-1.67c-.3-.51-.85-.89-1.21-1.45-.77-1.24-1.76-2.9-1.76-3.8s.71-1.5.46-2.34-1.65-.63-1.86-1.57c-.12-.57.41-1.53.37-2.35,0-.47-.75-1.11-.46-1.79s1,.07,1.49-.33c-.4-1.61,0-4.21-1.31-4.69-.68.69.7,2.25-.46,2.68-1.13-.6-.86-2.38-1.12-3.69a16.27,16.27,0,0,1-.55-2.57c0-.48.16-1.05.09-1.56-.2-1.5-1.59-2.74-1.68-4.25a15.1,15.1,0,0,1,.47-2.12c.07-.52-.06-1.12,0-1.67.08-.71.41-1.36.46-2a20.62,20.62,0,0,0-.18-4.36c-.23-1.29-1.08-2.39-1.21-3.8,0-.51.14-1.36.09-2s-.32-1.2-.37-1.9a17.53,17.53,0,0,1,.19-2c.1-1.4-.23-3-.19-4.36,0-.41.19-.71.19-1.11,0-1.16-.33-2.32-.37-3.47a48.8,48.8,0,0,0-.1-5.58,22.06,22.06,0,0,0-.93-4.69A12.9,12.9,0,0,0,118,267c-.65-.43-1.43-.58-2.13-1-1.52-.89-4.45-2.78-5.12-4.58-.19-.52-.16-1.21-.37-1.79a24.73,24.73,0,0,0-1.86-3.24c-1.15-2.11-2.08-4.75-3.25-6.92a29.47,29.47,0,0,0-1.77-3.24c-.38-.52-1.61-1-1.77-1.79-.2-1-.84-2.45-.74-3.24.13-1.07,1.86-1.93,1.86-2.9s-.92-1.31-1.12-2c-.47-1.71.28-2.72.84-4.14.19-.47.37-1.22.56-1.56.34-.62,1-.79,1.49-1.46.25-.37.41-1.14.74-1.67.71-1.13,1.85-1.55,2.14-2.57a25.62,25.62,0,0,0,.09-6.37,22.44,22.44,0,0,0-1-2.23c-.42-1.35-.52-2.82-1.68-2.79-.71,0-1.21,1-1.67,1.56-.11.79-.05,1.65-.74,1.9-1.06.37-1.47-1.34-2.7-1.79-.49-.18-1.27-.17-1.58-.33-.9-.49-1.19-2.07-2.14-2.69-.79-.51-1.47-.33-2-1.11a10.66,10.66,0,0,1-.09-2.24c-1-.72-1.89-3.39-3.07-4-.79-.42-2-.38-3-.78a10.61,10.61,0,0,0-1.3-.56A6.56,6.56,0,0,1,85,203c-1.84-1.09-2.83-4.65-5.11-4.58-1,0-1.91,1.13-2.79,1.12a9.8,9.8,0,0,1-3.45-1.45c-1.14-.64-2.4-1-3.34-1.56-.76-.47-1.29-1.33-2-1.68-.51-.27-1.26-.32-1.68-.56a19.21,19.21,0,0,1-2-1.68,3.76,3.76,0,0,1-1.49-2.23c0-.87.67-1.62.75-2.46.24-2.66-1.4-4.57-2.42-6.14-.76-1.17-1.65-2.16-2.42-3.24a8.13,8.13,0,0,0,0-1.56,23.76,23.76,0,0,1-1.67-2.69c-.55-.91-1.63-1.88-1.77-2.9-.17-1.25.4-2.36,0-3.58-.66-2-3-1.1-2.69,1.57.08.74.94,1.73,1.2,2.46s.22,1.67.47,2.57,1,1.6,1.21,2.57c.39,1.53.38,3.17.74,4.13s1.5,1.65.84,2.68c-.88.22-1.22-.84-1.77-1.45-.3-.34-1.41-1-1.58-1.79s.35-1.54.19-2.35c-.32-1.57-3-1.61-3-3.23,0-1,1.11-1.14,1.12-2.13s-1.22-2-1.49-2.9a20.24,20.24,0,0,1-.37-3.35,24.16,24.16,0,0,0-.19-3.24,5,5,0,0,0-1.76-2.24c-.82-.54-1.46-.32-1.86-1.11a10.48,10.48,0,0,1-.65-2.91c-.14-1.34,0-2.81-.1-4.24a26.44,26.44,0,0,1,0-4.36c.46-1.08,1.3-1.61,1.77-2.68.33-.75.37-1.67.74-2.46.68-1.46,2.17-2.8,3.16-4.24a20.37,20.37,0,0,0,2.7-4.81,8.11,8.11,0,0,0,.74-2.79c-.12-1.08-1.8-2-1.67-3.24.09-.79,1-.78,1.3-1.56a8.7,8.7,0,0,0,.28-2c0-1.08-.46-2.2-.28-3.35.16-1,1.37-1.38.75-2.46s-1.74.57-2.42-.11.13-1.41.18-2.57c0-.47-.22-1-.18-1.34.06-.5.87-1.34.65-1.68-.5-.76-1.07-2.7-2.14-3.35-1.36-.82-2.84-.27-4.74-.67-1.16-.25-1.72-1.56-2.79-1.45-.66.06-1,1-1.95,1.45s-2.08.31-3,.56-1.31,1-2.23.89c-.76-.07-.77-.9-1.67-1a11.53,11.53,0,0,0-1.58.33,18.07,18.07,0,0,1-5.49-.11,14.47,14.47,0,0,1-3.62-1.68c-1.11-.61-3.16-1.37-3.07-2.34.06-.63,1.94-1.29,2.69-1.57,1.22-.44,2-1.16,2.89-1.23.35,0,.82.27,1.3.23s1.06-.57,1.67-.67c1.3-.22,3.13.08,3-1.45-1-.94-5,.69-5.12-1.34-.06-1.23,1.53-1.61,2.7-1.9a15,15,0,0,1,3.63-.67c1.06.06,2.45,1.49,3.06-.11.3-1.14-.36-2.1-.55-3,.78-1.31,2.24-1.15,3.34-1.34a12.13,12.13,0,0,0,3.54-1.12,11.86,11.86,0,0,1,3.53-1.12c1.26-.19,2.49-.77,3.63-.89a21.68,21.68,0,0,0,2.69-.22A9,9,0,0,1,56,88.73c.59,0,1.09.54,1.67.67s1.19,0,1.77.11.85.48,1.3.56c.71.12,1.46-.12,2.14,0s1.16.57,1.77.67c1.43.22,3.07-.09,4.46.22.53.12,1,.43,1.58.56s1.14,0,1.67.11c.74.18,1.36,1,2.14,1.12,1.44.18,3.06-.75,4.56-.9a21.49,21.49,0,0,0,3.35-.22,18.71,18.71,0,0,1,3-.78c.51,0,.93.18,1.4.11s1-.77,1.58-.67c.69.13.57,1.18,1.3,1.45.81-.5,1.62,0,2.51,0s1.64-.51,2.6-.33c1.69.32,4.06,2.31,5.39,1.23.34-.28.26-.75.56-1.46.41-1,1.22-2.09,1-3.46-1.86,0-3.64,1.13-5.76,1.23-2.15-1.61.57-2.61,2.14-3.35,1.29-.61,2.31-2,3.9-2.24,1.3-.22,2.73.35,4.28.56.9.13,1.8-.07,2.32.11.92.33,1.39,1.42,2.14,1.68.33.11.86.1,1.3.22.84.24,1.59.77,2.42,0,.66.15.73,1,1.4,1.12.61-.4,1.09-1.42,2-1.67.41-.12.85.08,1.3,0,.76-.15,1.77-1.38,2.23-.23-.19.81-1.2.93-1.76,1.57a4.91,4.91,0,0,0-1.21,2.45c.11,1.07,1.44.66,1.49,2-.2.79-1,.44-1.58.79s-.79,1-1.4,1.11c-1.69.39-3.09-.51-4.55-.44-.07.76.72,1.2,1.11,1.45,1.33.83,2.41.72,4.28.67,1,0,2.06.34,2.88-.34.52-.43.49-1.37.93-1.9a3.28,3.28,0,0,1,2.51-1.11,1.51,1.51,0,0,1,1,1.11c0,1-1.19.7-1.21,1.79.79.57,2.87-.62,3-1.56.08-.69-.68-1.09-.65-1.79,0-1.17,1.37-1.15,1.21-2.35-.64-.6-1.31.13-2,0-.91-.18-1.73-1.49-2.14-2.34.41-.6,1.25-.2,1.86-.11.69-1.14,2-1.58,3.72-1.79.63-.07,1.47-.37,1.77.33.15,1.06-1.3,1.7-1,2.91,1.25.38,1.66-1.65,2.69-2.46a9.72,9.72,0,0,1,1.77-.89c.57-.26,1.21-.91,1.67-.9s.61.53,1.12.79,1.06-.16,1.21.55c-1.08,2.25-5.1,1-6.14,3.24.23,1.54-.63,3,.1,4,.51.73,1.68.23,2,1,.36,1-1.13,1-.74,2.23,1,.71,2.15-.67,3.06-1.22s2.21-1.3,2.33-2.69c-.5-1.13-2.33-.25-2.61-1.45a4.57,4.57,0,0,1,.75-2.34,9.32,9.32,0,0,1,6.78-2.91c.47,0,.93.39,1.4.45,1.6.2,3.48-.83,4.74,0,1-.71,2.22.1,3.63-.11,1.08.76.78,2.4,2.41,3.13.45.19,1,0,1.58.22s.9.73,1.4,1c.7.38,1.24.29,1.39.89s-.51,1-.46,1.56c.4.4.06,1,.28,1.57.4,1,1.41,1,2.41,1.45.71.35,2.21,1.41,2.14,2.23,0,.56-1.41,1.53-1.86,1.79a6.69,6.69,0,0,1-2.41,1c-.88-.16-1.22-2.3-2.42-2.24a1.1,1.1,0,0,0-1,1.23c0,1.47,1.36,1.52,1.39,2.79,0,1.52-.69,1.63-1.77,2.57a6.78,6.78,0,0,0-2.41-1c-.6.85,1,1.15.46,2.23-1.49.38-2.63-.51-4-1-.42-.16-1-.1-1.39-.34-.53-.37-.68-1.45-1.12-2a3.72,3.72,0,0,0-2.32-1.56c-1.15,0-2.81,1.71-3.72.11.63-2.56,3.61-.66,5.58-1.57.73-.33,1-1.26,1.58-1.67,1.2-.83,3.16-.94,3-2.57-.09-.82-1-.81-1.58-1.23-.72-.57-1.28-2.58-2.32-2.68-.54,0-.92.49-1.49.56-1.2.13-2.54-.58-3.62,0-.51.34-.17.9-.56,1.56s-1.09.69-1.4,1.23-.28,1.41-.74,1.9c-.76.81-2.38.94-3.35,1.34-.43.18-1,.79-1.39.78-.77,0-1.1-1.24-1.95-.78-.08,1.19,1,1.68,1.76,2.23a4.37,4.37,0,0,1,1.86,2.24c-.76,1.93-2-.1-3.16-.11s-3.24,3-4.37.55c.28-1.3,1.48-1.5,1.77-2.79-1.32.27-2.46,1.6-4,2-.65.18-1.28.13-1.86.34-1.11.39-1.89,1.38-3.07,1.9-.46.2-1,.14-1.49.33a23.55,23.55,0,0,0-3.62,2,20.29,20.29,0,0,0-3.25,2.35,6.34,6.34,0,0,0-1.4,2.34c.05.67,1.09.89,1.12,1.57,0,.41-.61,1.3-.19,1.9s1.14.1,2,.22c1.42.21,2.35,1.62,3.44,2.35a8.84,8.84,0,0,0,3,1.34c1.28.19,2.71-.45,2.88.78s-1.2,1.6-1.3,2.35c.69,1.09-.47,1.61-.47,2.57,0,.77.8,1.93,1.49,2,.94.1,2.31-1.1,2.7-2.23.46-1.34.26-3.16,1.11-4.13,4.33.14,8-2.37,7.72-7.71a8.69,8.69,0,0,1-.19-1.79c.14-.86,1.37-1.59,1.21-2.68,1.21-.45,1.16-2.78,2.42-3.13,1.05-.28,2.24.9,3.62.78.45,0,1-.52,1.49-.44.91.15,1.46,1.5,2.14,2.12s1.24.38,1.4,1.12c-.18,1.25-.92,1.28-.84,2.45a2.32,2.32,0,0,0,1.39,1.91,3.88,3.88,0,0,0,2.33-.68c1.24-.7,2.31-2.84,3.34-2.57.82.22,1.46,3.35,1.58,4.47s-.13,2.13-.09,3.24c.12,1.89,2.1,1.7,3.07,2.68.29.3.41,1.07.65,1.46.47.75,1,.75,1.12,1.56.17,1.93-1.46,2.09-1.31,4.25-.33.83-1.18.78-1.11,1.89.11,1.77,2.22.42,2.79,1.79.31.74,0,1.29-.28,2.35.72,1,.71,2.68-.56,2.68C159.68,135.31,159.47,134.31,158.68,134.08Zm-100.5-2.9c.44-.55-.18-1.69-.84-1.23C57.28,130.36,57.46,131.34,58.18,131.18Zm64.9,10.16c-.39-.45-1.65-.32-2.51-.22-.61.07-1.34.23-1.4.78C120.14,142.43,122.77,142.82,123.08,141.34Zm-4.84-1.9a1.49,1.49,0,0,0-.37-2.34c-.3-.1-.71.27-1.21.22s-1-.63-1.49-.67a2,2,0,0,0-1.76.78c0,.67.41.78.37,1.45-.9.78-.42,3.37.47,3.47s1.43-2.87,2.69-3.13C117.4,139.12,117.63,139.53,118.24,139.44Zm-1.3,4.47c-1.32-.56-2.54.38-3.62.56-.65.1-1.83-.16-1.68,1,.12.95,1.34.61,2,.34A8.39,8.39,0,0,0,116.94,143.91Zm-4.09-8.49c1.85-.95-.37-3.87-1.21-4.13-1.51-.48-3.65,1.33-5.39,1.9-1,.32-1.92.35-2.14,1.34.88,1.75,2.62-.39,3.9-.11.66.13,1,1.2,1.68,1.34A16.27,16.27,0,0,0,112.85,135.42Zm-1.3,1.79c-.39-.55-2.47.06-3.07.56a11.23,11.23,0,0,0-1.12,1.79c-.43.63-.93,1.12-1.3,1.67s-2.22,3.76-.74,4.13c.63.16,1.92-1.41,2-2a6.86,6.86,0,0,1,2.51-4.47C110.64,138.33,111.42,138.4,111.55,137.21ZM99.93,124.7c1,0,1.74-3.73,0-3.24C98.76,121.78,98.48,124.76,99.93,124.7Zm-5,83.78c0-.17.13-.28.18-.45C94.81,206.92,93.92,208.44,94.91,208.48ZM55.58,115c0-.21-.11-.25-.09-.45-.29,0-.61-.06-.56.34A.36.36,0,0,0,55.58,115Zm97.71-17.54c.46.07.72-.11.65-.67C153.53,96.42,152.93,96.88,153.29,97.44Zm-10.69-11a.4.4,0,0,0-.56,0v.45C142.44,87,142.51,86.76,142.6,86.49Zm-35.33,8.6c.31-.24.79-.56.56-1.11-1-.58-2.76-.14-4.28-.34-.86-1.46-2.29-1.68-2.41.67C102.87,96,105.49,93.53,107.27,95.09ZM90.63,106.6c.53-.22,1.26-.11,1.39-.78-.43-.42-.88-1-1.39-1-.67,0-1,.69-1.67,1.12s-1.88.62-2,1.45A5.79,5.79,0,0,0,90.63,106.6Zm-.47-8c.6-.13,1.21.2,1.59-.45-.45-2.46-3.28-1-4.93-.78a6.2,6.2,0,0,0-.93,2.23C87.17,100,88.72,98.85,90.16,98.56Zm27.9,114.16c.73-.14.52-2.17-.37-1.67C117,211.42,117.36,212.86,118.06,212.72Z" style="fill:#e0e0e0"></path><path d="M55.49,114.53c0,.2.11.24.09.45a.36.36,0,0,1-.65-.11C54.88,114.47,55.2,114.53,55.49,114.53Z" style="fill:#e0e0e0"></path><path d="M52.7,121.12a2.14,2.14,0,0,1-1.3,1.34,2.33,2.33,0,0,1-.47-.56C51,120.84,52.23,120.06,52.7,121.12Z" style="fill:#e0e0e0"></path></g></svg>